<?xml version="1.0" encoding="utf-8"?>
<!-- Generator: Adobe Illustrator 23.0.2, SVG Export Plug-In . SVG Version: 6.00 Build 0)  -->
<svg version="1.1" id="Layer_1" xmlns="http://www.w3.org/2000/svg" xmlns:xlink="http://www.w3.org/1999/xlink" x="0px" y="0px"
	 viewBox="0 0 612 227" style="enable-background:new 0 0 612 227;" xml:space="preserve">
<style type="text/css">
	.st0{fill:#E8A76F;}
	.st1{fill:#FEDCB6;}
	.st2{fill:none;stroke:#000000;stroke-width:3;stroke-miterlimit:10;}
	.st3{opacity:0.25;fill:url(#SVGID_1_);}
	.st4{opacity:0.25;fill:url(#SVGID_2_);}
	.st5{fill:#FFFFFF;}
	.st6{fill:#00A79D;}
	.st7{fill:#E63A6D;stroke:#414042;stroke-width:2;stroke-miterlimit:10;}
	.st8{opacity:0.8;fill:#F9CBAB;}
	.st9{fill:#CB8666;}
	.st10{fill:#C0BFBF;}
	.st11{fill:none;stroke:#000000;stroke-miterlimit:10;}
	.st12{fill:#ECA1C2;}
	.st13{fill:#F49BC2;}
	.st14{fill:#E63A6D;stroke:#000000;stroke-width:2;stroke-miterlimit:10;}
	.st15{fill:#67C7C4;}
	.st16{fill:#E63A6D;stroke:#E63A6D;stroke-miterlimit:10;}
	.st17{stroke:#ED1C24;stroke-miterlimit:10;}
	.st18{fill:#E63A6D;}
</style>
<path class="st0" d="M68.2,166.5c0,0,27.3,9.4,32.7,9.9c5.4,0.5,13-2.7,13-2.7l17.1-20.5v-32.1c0,0-11.4-17.9-17.9-25.2
	c-6.5-7.3-17.6-10.1-21.1-10.1s-14.3,0.7-14.3,0.7l-14.1,39.6L68.2,166.5z"/>
<path class="st1" d="M76.9,116.6c-1,8.8-3.2,3.9-4.6,9.2c-1.9,7.2-1.8,11.6,4.7,30.2c4.1,11.8,17,22.2,27.7,19.6
	c8.1-1.9,29.3-26,23.3-42.8c-6-16.8-16.7-28.4-24.5-33.9C94,92.2,88.8,93,84.6,94.6C80.5,96.2,78,107,76.9,116.6z"/>
<path class="st2" d="M71.8,127c0,0,3-5.9,11.5-3.4c7.3,2.1,12.2,2.7,12.2,2.7"/>
<radialGradient id="SVGID_1_" cx="-52.0417" cy="23.125" r="13.241" gradientTransform="matrix(1.6084 0.1008 -9.655731e-02 1.5408 162.3673 115.7994)" gradientUnits="userSpaceOnUse">
	<stop  offset="0" style="stop-color:#EE2A7B"/>
	<stop  offset="1" style="stop-color:#F49BC2;stop-opacity:0"/>
</radialGradient>
<path class="st3" d="M80.3,146.2c-0.5,8.7,17.1,25.9,8,25.3S63,148.9,63.5,140.1c0.5-8.7-5.9-19.7,3.2-19.2S80.8,137.5,80.3,146.2z"
	/>
<radialGradient id="SVGID_2_" cx="31.6366" cy="63.4755" r="17.9135" gradientTransform="matrix(1.4847 0 0 1.3477 79.2184 64.1279)" gradientUnits="userSpaceOnUse">
	<stop  offset="0" style="stop-color:#EE2A7B"/>
	<stop  offset="1" style="stop-color:#F49BC2;stop-opacity:0"/>
</radialGradient>
<path class="st4" d="M136.2,156.5c0,7.6-4.8,25.6-13.2,25.6s-10.8-17.8-6.7-24.3c9.6-15,0-45.3,17.3-39.9
	C141.6,120.4,136.2,148.9,136.2,156.5z"/>
<path class="st2" d="M105.6,125.6c0,0,3.3,0.7,8.6-0.8c8.9-2.6,14.2,1.2,14.2,1.2"/>
<path d="M76.6,128c5.3-3.2,9.8-3.9,13.9-1.1c3,2,3.9,5.4,4.2,7.1c0.1,0.6-2,0.3-2.6,0.4l-4.6,1.4c-2.9,0.3-4.2-0.1-7-1.2
	c-1.6-0.6-3.1-1.4-4.7-2.2l-1.8-1.1c-0.6-0.4-0.6-1.2,0-1.6C74.8,129.2,76,128.4,76.6,128z"/>
<path class="st5" d="M90.7,130.4c0,1.4-1.1,1.6-2.4,1.6s-2.4-0.2-2.4-1.6c0-1.4,1.1-2.4,2.4-2.4S90.7,129.1,90.7,130.4z"/>
<ellipse class="st5" cx="85.5" cy="128.8" rx="0.5" ry="0.5"/>
<path class="st6" d="M88.3,134.6c0,0.1-0.2,0.3-0.4,0.3s-1.8,0-1.8-0.1c0-0.1,1.6-0.4,1.8-0.4S88.3,134.4,88.3,134.6z"/>
<path class="st6" d="M84.1,133.9c0,0.1-0.3,0.2-0.5,0.1s-1.7-0.5-1.7-0.7s1.6,0.1,1.8,0.2S84.1,133.8,84.1,133.9z"/>
<path class="st6" d="M79.5,133.2c-0.1,0.1-0.3,0.1-0.5,0s-1.4-1.1-1.3-1.2s1.5,0.7,1.6,0.8S79.5,133.1,79.5,133.2z"/>
<g>
	<path d="M76.3,135.6c0.3-0.6,0.9-0.9,1.6-1.1c0.3-0.1,0.7,0,1,0c0.3,0.1,0.7,0.2,0.9,0.4c1,0.5,2.1,0.8,3.2,1.1
		c2.2,0.5,4.6,0.5,6.8-0.5c-0.9,0.7-2.1,1.2-3.3,1.4c-1.2,0.2-2.4,0.2-3.6,0c-1.2-0.2-2.4-0.5-3.5-1c-0.5-0.3-0.9-0.4-1.5-0.5
		C77.4,135.3,76.9,135.3,76.3,135.6z"/>
</g>
<g>
	<path d="M124.7,130.5c-4.8-4.1-9.1-4.6-13.6-2.3c-3.3,1.7-3.8,4.1-4.3,5.9c-0.2,0.6,2,0.6,2.6,0.8l4.4,2.1c2.9,0.8,4.2,0.6,7.1-0.2
		c1.6-0.4,3.3-1,5-1.6l2-0.9c0.6-0.3,0.8-1.1,0.2-1.6C127.2,132,125.3,131,124.7,130.5z"/>
	<path class="st5" d="M111.4,130.3c-0.2,1.4,0.8,1.9,2.1,2.1s2.6,0.1,2.8-1.3c0.2-1.4-0.8-2.7-2.1-2.9
		C112.8,127.9,111.6,128.9,111.4,130.3z"/>
	<ellipse transform="matrix(1 -5.203876e-03 5.203876e-03 1 -0.6765 0.6147)" class="st5" cx="117.8" cy="130.3" rx="0.9" ry="1"/>
	<path class="st6" d="M113.1,135.6c0,0.2,0.1,0.3,0.4,0.3s1.8,0.3,1.8,0.1c0-0.2-1.5-0.6-1.7-0.7S113.1,135.5,113.1,135.6z"/>
	<path class="st6" d="M117.3,135.6c0,0.2,0.2,0.2,0.4,0.2s1.8-0.3,1.7-0.5c0-0.2-1.6-0.1-1.8-0.1S117.3,135.4,117.3,135.6z"/>
	<path class="st6" d="M122,135.4c0.1,0.1,0.3,0.1,0.5,0c0.2-0.1,1.5-1,1.5-1.1c-0.1-0.1-1.6,0.5-1.7,0.6
		C122,135.1,122,135.3,122,135.4z"/>
	<g>
		<path d="M124.9,138.4c-0.5-0.3-1.1-0.5-1.6-0.5c-0.5,0-0.9,0.1-1.5,0.3c-1.2,0.4-2.4,0.5-3.6,0.6c-1.2,0-2.5-0.1-3.6-0.5
			c-1.2-0.4-2.2-1-3.1-1.9c1,0.7,2.1,1.1,3.2,1.3c1.1,0.2,2.3,0.3,3.4,0.2c1.1-0.1,2.3-0.3,3.4-0.6c0.2-0.1,0.6-0.2,1-0.2
			c0.3,0,0.7,0,1,0.1C124.1,137.3,124.6,137.8,124.9,138.4z"/>
	</g>
</g>
<path class="st7" d="M73.1,79.7c4.8-3.5,9.7-0.9,12.8-1.9c2.2-0.7,4.9-5.8,11.3-7.8c7.5-2.3,17.5-1.4,27.4,7.1
	c14.2,12,18.3,37,19.1,53.1c0.8,14.4,5.6,33.5,8.9,38.7L109.6,193l-0.1-15.5c0,0-5,2.9-10.7,2.6c-8.4-0.4-10.4-3.3-10.4-3.3
	l-0.1,17.2l-37.1-19.6c0,0,9.9-13.8,8.8-31.7c-0.6-10.2,0.2-32.6,2.3-44.8C64.7,84.5,68.7,83,73.1,79.7z M71.3,119.6
	c-1.5,4.2-2.3,4.3-2.3,4.3c-1.4,19,8.9,39.9,22.5,50c6,4.5,12.2,2.9,17.8-0.1c5.1-2.7,14.3-11.3,17.5-18
	c10.4-21.7-2.1-50.2-21.3-61.2c-19.3-11-27.1-5-31.1,9.3C72.2,111.7,72.6,115.9,71.3,119.6z"/>
<g>
	<path class="st8" d="M92.6,154.8c0,0,4.1,2.9,15.4,0.6c0.1-0.4,0.2-1,0.8-1.4c0.1,1.1-0.2,2.1,0.4,2.8c-0.6-0.1-0.9-0.7-0.9-0.7
		s-0.8,0.4-2.3,2.3c-1.5,2-3.9,2.4-6.4,2.4c-3.9,0.1-3-3.1-5.2-3.9C92.4,156.1,92.6,154.8,92.6,154.8z"/>
	<path class="st9" d="M108.6,154.7c-0.1,0-0.2,0.2-0.2,0.3c0,0.2,0,0.3,0,0.4c0,0.1,0,0.1,0,0.2c-2.1,0.6-4.2,0.7-6.4,0.9
		c-2.5,0.3-6.4,0.5-8.6-0.9c-0.1-0.1-0.1,0,0,0c0.6,0.5,1.1,1,1.9,1.1c1.7,2,3.2,4.3,6.1,4.5c2.9,0.2,4.4-3.3,6-4.9
		c0,0,0.1-0.1,0.1-0.1c0.4-0.1,0.7-0.2,1-0.4c0.1,0.2,0.2,0.4,0.5,0.4C108.7,155.7,108.6,155.2,108.6,154.7z"/>
	<path class="st5" d="M100.1,160.5c-2.3-0.2-3.4-2.4-5.1-3.7c1.8,0.3,4.7,0.1,6.2,0.1c1.7,0,3.8-0.1,5.6-0.5
		C105,158.2,103.1,160.7,100.1,160.5z"/>
	<path class="st10" d="M97.9,158.4c0,0,3.3,0.7,6.4-0.2C104.1,158.9,100.2,159.5,97.9,158.4z"/>
</g>
<path class="st11" d="M92.5,155.5c0,0,4.5,4.2,16,0.2"/>
<path class="st11" d="M107.3,156.3c0,0-3.4,6.3-7.3,5.3c-3.3-0.9-5.6-4.8-5.6-4.8"/>
<path class="st11" d="M108.9,153.2c0,0-1,1.9,0.4,3.6"/>
<path class="st11" d="M92.4,155.6c0,0,1-0.7-0.4,1"/>
<g>
	<path class="st12" d="M71.8,83.3c-1.9,3-3.4,6.2-4.4,9.6c-0.5,1.7-0.8,3.4-1.1,5.2c-0.3,1.7-0.6,3.5-0.9,5.2c-1,7-1.4,14-1.2,21.1
		c0,3.5,0.2,7,0.4,10.6c0.1,3.6,0.1,7.1,0,10.7c-0.2,3.6-0.5,7.1-1.1,10.7c-0.3,1.8-0.7,3.5-1.3,5.2c-0.6,1.7-1.3,3.4-2.5,4.7
		c1-1.5,1.5-3.2,2-4.9c0.4-1.7,0.7-3.5,0.8-5.2c0.4-3.5,0.5-7,0.5-10.6c0-3.5-0.1-7.1-0.3-10.6c-0.2-3.5-0.4-7.1-0.5-10.7
		c-0.1-7.1,0.3-14.3,1.7-21.4c0.3-1.8,0.7-3.5,1.1-5.2c0.4-1.7,0.8-3.5,1.4-5.2C67.8,89.3,69.5,86.1,71.8,83.3z"/>
</g>
<g>
	<path class="st12" d="M100.9,72.6c1.7-0.5,3.5-0.7,5.2-0.8c1.8,0,3.6,0.1,5.3,0.5c3.5,0.7,6.8,2.3,9.7,4.3l2.1,1.7
		c0.7,0.6,1.3,1.2,1.9,1.9c1.3,1.2,2.3,2.7,3.4,4.1c1,1.4,1.9,3,2.8,4.5c0.8,1.6,1.5,3.2,2.3,4.8c-0.9-1.5-1.8-3-2.7-4.5
		c-1-1.4-1.9-2.9-3-4.3c-1.2-1.3-2.2-2.7-3.5-3.9c-0.6-0.6-1.2-1.3-1.9-1.8l-2-1.6c-2.8-2-5.9-3.5-9.3-4.4
		C107.9,72.1,104.3,72,100.9,72.6z"/>
</g>
<g>
	<path class="st12" d="M134.8,102.1c1.5,4.9,2.7,9.9,3.7,14.9c1,5,1.8,10.1,2.2,15.2c0.1,2.6,0.1,5.1,0.3,7.6c0.2,2.5,0.5,5,0.9,7.5
		c0.9,4.9,2.4,9.8,4.6,14.4c-2.9-4.2-4.9-9.1-6.1-14.1c-0.6-2.5-1-5.1-1.3-7.6c-0.3-2.6-0.3-5.2-0.4-7.6c-0.3-5-1.1-10-1.7-15.1
		C136.3,112.2,135.5,107.2,134.8,102.1z"/>
</g>
<g>
	<path class="st13" d="M71.2,157.1c2.7,2.8,4.9,6.2,6.5,9.8c0.8,1.8,1.4,3.7,1.9,5.6c0.5,1.9,0.7,3.9,0.7,5.9
		c-0.4-1.9-0.8-3.8-1.4-5.7c-0.6-1.8-1.3-3.7-2.1-5.4c-0.8-1.8-1.7-3.5-2.6-5.2C73.3,160.4,72.3,158.7,71.2,157.1z"/>
</g>
<g>
	<path class="st13" d="M130.8,159c-1.4,1.4-2.6,2.9-3.8,4.5c-1.1,1.6-2.1,3.2-2.9,5c-0.8,1.7-1.5,3.6-2,5.4c-0.5,1.9-0.8,3.8-1,5.8
		c-0.1-2-0.2-4,0.3-5.9c0.1-1,0.5-1.9,0.7-2.9c0.3-0.9,0.7-1.9,1.1-2.8c0.9-1.8,1.9-3.5,3.2-5C127.7,161.5,129.2,160.1,130.8,159z"
		/>
</g>
<path class="st13" d="M198.6,24.9"/>
<path class="st13" d="M254.8,107.7"/>
<path class="st14" d="M201.1,80.2"/>
<g>
	<rect x="375.9" y="98.2" class="st15" width="15.3" height="41.1"/>
</g>
<g>
	<circle class="st16" cx="301.5" cy="43" r="8.7"/>
</g>
<g>
	<circle class="st16" cx="215.6" cy="176.9" r="8.7"/>
</g>
<g>
	<path class="st17" d="M256.1,151.2"/>
</g>
<g>
	<path class="st15" d="M279.8,177.5h-15.3c0-29,30.1-40,31.4-40.5l5.1,14.4l-2.6-7.2l2.6,7.2C300.2,151.7,279.8,159.4,279.8,177.5z"
		/>
</g>
<g>
	<path class="st15" d="M287.4,158.8c-24.9,0-41.8-19.8-44.1-51.7c-1.1-14.5-7.7-23.9-20.2-28.9c-10.1-4-20.2-3.4-20.3-3.4l-1-15.2
		c0.5,0,13.2-0.9,26.4,4.2c12.8,4.9,28.5,16.2,30.4,42.2c0.6,8.8,4.6,37.6,28.9,37.6c0,0,0.1,0,0.1,0l0.1,15.3
		C287.5,158.8,287.5,158.8,287.4,158.8z"/>
</g>
<g>
	<path class="st15" d="M208.5,161c-0.6-47.3,25.7-54.4,26.8-54.7l3.7,14.8c0,0,0.1,0,0.2-0.1c-0.6,0.2-15.9,5.3-15.4,39.7L208.5,161
		z"/>
</g>
<g>
	<path class="st15" d="M256,109.2l-6.5-13.8c19.2-9,21.8-21.8,21.8-33.1h15.3C286.6,84.2,276.6,99.5,256,109.2z"/>
</g>
<g>
	<path class="st15" d="M295.9,192.7c-2.4-95.1-2-130.2-2-130.5l15.3,0.2c0,0.3-0.4,35.2,2,129.9L295.9,192.7z"/>
</g>
<g>
	<path class="st18" d="M327.3,151.2l-0.6-47.6c-0.1-2.1-0.5-15.1,4-24.2c7.6-15.8,23.6-20.1,36.1-17.2c14.1,3.2,23.6,14.8,23.6,28.9
		h-15.3c0-8.3-6.1-12.7-11.8-14c-6.1-1.4-14.7,0.1-18.9,9c-2.4,5-2.6,14.2-2.4,17l0,0.3l0.6,47.8L327.3,151.2z"/>
</g>
<g>
	<circle class="st18" cx="551.9" cy="61" r="8.7"/>
</g>
<g>
	<path class="st17" d="M512.5,86.7"/>
</g>
<g>
	<path class="st15" d="M472.6,100.8l-5.1-14.4l2.6,7.2l-2.6-7.2c0.9-0.3,21.3-8,21.3-26.1h15.3C504.1,89.3,473.9,100.4,472.6,100.8z
		"/>
</g>
<g>
	<path class="st15" d="M564.2,178.4c-4.5,0-14-0.5-23.8-4.3c-12.8-4.9-28.5-16.2-30.4-42.2c-0.6-8.8-4.6-37.6-28.9-37.6
		c0,0-0.1,0-0.1,0L481,79c0.1,0,0.1,0,0.2,0c24.9,0,41.8,19.8,44.1,51.7c1.1,14.5,7.7,23.9,20.2,28.9c10.1,4,20.2,3.4,20.3,3.4
		l1,15.2C566.7,178.3,565.8,178.4,564.2,178.4z"/>
</g>
<g>
	<path class="st15" d="M533.3,131.6l-3.7-14.8c0,0-0.1,0-0.2,0.1c0.6-0.2,15.9-5.3,15.4-39.7l15.3-0.2
		C560.7,124.2,534.4,131.3,533.3,131.6z"/>
</g>
<g>
	<path class="st15" d="M497.2,175.6H482c0-21.9,10-37.3,30.6-46.9l6.5,13.8C499.8,151.5,497.2,164.3,497.2,175.6z"/>
</g>
<g>
	<path class="st15" d="M474.7,175.6l-15.3-0.2c0-0.3,0.4-35.2-2-129.9l15.3-0.4C475,140.2,474.7,175.3,474.7,175.6z"/>
</g>
<g>
	<path class="st18" d="M408.2,176.6c-2.5,0-5-0.3-7.4-0.8c-14.1-3.2-23.6-14.8-23.6-28.9h15.3c0,8.3,6.1,12.7,11.8,14
		c6.1,1.4,14.7-0.1,18.9-9c2.4-5,2.6-14.2,2.4-17l0-0.3l-0.6-47.8l15.3-0.2l0.6,47.6c0.1,2.1,0.5,15.1-3.9,24.2
		C430.7,171.4,419,176.6,408.2,176.6z"/>
</g>
<g>
	<path class="st15" d="M99.2,198.1c-41.9,0-76.1-34.1-76.1-76.1s34.1-76.1,76.1-76.1s76.1,34.1,76.1,76.1S141.1,198.1,99.2,198.1z
		 M99.2,57.9C63.8,57.9,35,86.6,35,122c0,35.4,28.8,64.1,64.1,64.1c35.4,0,64.1-28.8,64.1-64.1C163.3,86.6,134.6,57.9,99.2,57.9z"/>
</g>
</svg>
